<svg width="32" height="32" viewBox="0 0 32 32" fill="none" xmlns="http://www.w3.org/2000/svg">
<circle cx="16" cy="16" r="15.625" fill="#1E1C56" stroke="white" stroke-width="0.75"/>
<path d="M18.25 11.5942C18.25 11.6803 18.3201 11.7504 18.4063 11.7504H21.9786C21.8928 11.5921 21.7825 11.4467 21.65 11.3213L18.6368 8.47061C18.5198 8.35998 18.3896 8.2677 18.25 8.19482V11.5942H18.25Z" fill="white"/>
<path fill-rule="evenodd" clip-rule="evenodd" d="M17.3125 11.5938C17.3125 12.1968 17.8032 12.6875 18.4062 12.6875H22.1875V22.2812C22.1875 23.229 21.4165 24 20.4688 24H11.7188C10.771 24 10 23.229 10 22.2812V9.71875C10 8.77103 10.771 8 11.7188 8H17.3125V11.5938Z" fill="white"/>
<path d="M13.8945 20L14.9957 17H14.2911L13.4979 19.3057L12.6999 17H12L13.0966 20H13.8945Z" fill="#1E1C56"/>
<path d="M17.7593 20L16.6115 17H15.8135L14.6703 20H15.3656L15.5616 19.46H16.8634L17.0594 20H17.7593ZM16.2148 17.6814L16.6628 18.9071H15.7669L16.2148 17.6814Z" fill="#1E1C56"/>
<path d="M17.5969 17V17.5657H18.4741V20H19.1181V17.5657H20V17H17.5969Z" fill="#1E1C56"/>
</svg>
